<svg xmlns="http://www.w3.org/2000/svg" width="2000" height="358" fill="none" viewBox="0 0 2000 358"><path fill="#f0f0e8" d="M877.122 195.033c0-68.6 45.444-118.591 102.465-118.591 57.023 0 102.493 49.991 102.493 118.591s-45.44 118.171-102.493 118.171c-57.051 0-102.465-49.572-102.465-118.171m164.868 21.899c0-64.86-21.9-123.557-68.596-123.557-28.092 0-56.213 23.156-56.213 77.275 0 63.633 23.155 125.621 69.437 125.621 28.512 0 55.372-24.801 55.372-79.339m42.58 92.977v-8.257c13.23 0 20.26-2.483 20.26-24.382V63.214c0-12.804-.84-20.672-2.91-23.963-2.06-3.29-8.67-4.129-19.83-2.483V28.51L1143.24 0v277.27c0 21.899 6.19 24.382 20.67 24.382v8.257zm489.43.001v-9.095c11.97 0 19.41-1.645 19.41-23.544V142.974c0-14.45-.83-23.964-2.48-28.092-2.06-3.71-8.26-4.966-19-2.902v-7.838l59.93-30.157v52.056c7.03-12.805 15.29-24.382 25.64-34.704 10.32-10.321 21.06-15.706 33.05-15.706 17.78 0 27.26 10.74 27.26 25.19 0 12.804-8.26 22.318-20.25 22.318-7.04 0-12.39-2.064-16.13-5.774-3.71-3.71-8.26-5.774-14.45-5.774-11.16 0-23.13 17.352-35.12 40.089v125.621c0 21.899 6.19 24.382 28.09 24.382v8.257H1574z"/><path fill="#f0f0e8" d="M1827.08 293.362c-8.26 13.224-21.48 19.835-39.67 19.835-29.32 0-50.41-16.514-50.41-56.184V98.334h-21.48v-7.45c26.03-7.837 40.48-35.54 48.77-73.146h11.15v61.15h56.52v19.416h-56.52v155.359c0 25.22 9.52 34.703 25.61 34.703 16.1 0 25.64-11.578 31-44.636l9.51 1.227c-1.64 18.997-6.61 35.122-14.48 48.345zm107.22-73.948-35.54-23.963c-23.54-16.125-38.02-36.349-38.02-61.569 0-36.35 30.15-57.022 64.05-57.022 12.8 0 22.32 2.064 29.35 6.193s11.99 6.193 15.7 6.193c5.36 0 8.68-3.291 9.1-8.676h9.09v67.762h-9.51c-6.61-38.025-30.58-55.376-54.12-55.376-20.25 0-33.06 11.996-33.06 28.929s12.39 27.673 30.58 39.67l35.93 24.801c24.38 16.933 42.15 33.058 42.15 64.471 0 16.933-6.19 31.413-19 43.798-12.8 12.386-29.76 18.579-50.41 18.579-33.47 0-46.28-14.45-54.54-14.45-6.61 0-9.51 6.611-9.93 11.578h-9.51v-78.921h9.93c3.71 44.217 34.29 65.697 64.05 65.697 23.55 0 34.71-16.514 34.71-34.284 0-19.417-9.52-28.93-31-43.38zM886.721 89.24v-9.094h-73.117v9.095c24.771 0 33.058 16.125 19.416 52.474L792.124 251.63l-49.572-133.041c-8.676-24.382-.419-29.348 19.416-29.348v-9.095h-82.241v9.095c11.996 0 15.706 4.966 24.382 29.348l72.309 191.319h12.026l68.151-178.903c10.321-26.865 18.189-41.734 30.156-41.734zm411.029-9.059v9.095c24.8 0 33.06 16.125 19.42 52.474l-40.93 109.915-49.57-133.041c-8.68-24.382-.39-29.348 19.41-29.348V80.18h-82.21v9.095c11.97 0 15.71 4.966 24.39 29.348l72.3 191.319h12l68.15-178.903c10.32-26.866 18.19-41.734 30.16-41.734V80.21h-73.15zm246.07 184.673L1448.08 0h-16.33l-95.35 265.692c-9.51 26.446-16.12 35.122-30.99 35.122v9.095h84.69v-9.095c-29.76-1.226-40.08-11.159-26.86-49.572l18.19-51.637h98.34l23.15 65.279c11.16 29.737 1.65 35.96-21.09 35.96v9.095h92.14v-9.095c-14.48 0-20.67-9.513-30.15-35.96zm-156.17-83.468 42.57-120.655 42.96 120.655zM533.443 18.19h72.309c44.636 0 60.731 8.256 63.214 61.987h10.74V0H464.844v9.095c10.74 0 18.159 1.645 22.736 4.547 4.129 2.902 6.193 11.967 6.193 26.447V269.82q0 21.091-6.193 26.028c-4.547 3.291-11.996 4.966-22.736 4.966v9.095h214.862v-91.306h-10.74c-2.483 63.214-18.189 73.146-69.018 73.146h-66.535V163.645h43.379c30.156 0 40.089 10.741 41.315 40.897h10.322v-99.175h-10.322c-1.226 31.832-11.159 40.508-41.315 40.508h-43.379V18.19zM257.435 132.233c28.981 0 52.474-23.493 52.474-52.474s-23.493-52.474-52.474-52.474-52.474 23.494-52.474 52.474c0 28.981 23.493 52.474 52.474 52.474m52.473 18.192H0v9.095h309.908zM310 300.001H51.999v10H310zM309.908 0H0v9.095h309.908z"/><path fill="#f0f0e8" d="M52.474 357.835c28.98 0 52.474-23.493 52.474-52.474s-23.493-52.474-52.474-52.474S0 276.381 0 305.361c0 28.981 23.493 52.474 52.474 52.474"/></svg>