<svg xmlns="http://www.w3.org/2000/svg" width="292.655" height="22.589" viewBox="0 0 77.432 5.977"><path d="M77.434 5.909h-.355q-.085-.118-.11-.262-.026-.144-.026-.28v-.533q0-.186-.025-.364-.026-.186-.093-.355-.06-.17-.17-.322-.101-.152-.254-.254-.144-.11-.33-.152-.178-.043-.355-.043h-1.702V5.91h-.356V.068h2.083q.22 0 .432.042.22.034.415.135.203.102.355.263.153.152.246.347.1.195.135.415.043.22.043.432 0 .245-.051.482-.042.237-.161.45-.12.202-.313.363-.187.153-.407.237.22.102.39.271.178.17.28.39.11.22.152.457t.042.482v.534q0 .135.025.28.026.143.11.262M75.74 3.015q.178 0 .347-.025.17-.034.322-.11.152-.085.27-.212.128-.135.196-.288.076-.16.1-.33.035-.17.035-.347 0-.17-.034-.339-.025-.178-.101-.33-.068-.152-.195-.28-.12-.135-.271-.211-.153-.085-.322-.119-.17-.034-.347-.034h-1.727v2.625zm-8.153 2.894V.068h3.573v.321h-3.218v2.32h2.676v.322h-2.676v2.557h3.218v.322Zm-6.088 0v-.321h1.524V.389H61.5V.068h3.404v.321H63.38v5.199h1.524v.322Zm-5.893 0V.068h.356v5.52h2.972v.322Zm-6.434 0V.068h3.573v.321h-3.218v2.32h2.676v.322h-2.676v2.557h3.218v.322Zm-4.564 0V.389h-1.693V.068h3.742v.321h-1.693v5.52zm-7.96 0L38.446.068h.407l1.795 5.842h-.39l-.567-1.88h-2.083l-.567 1.88zm1.06-2.2h1.88l-.51-1.694q-.11-.364-.22-.72-.11-.364-.21-.728-.102.364-.212.728-.11.356-.22.72z" style="font-weight:200;font-size:8.46667px;line-height:0;font-family:&quot;Ioskeley Mono&quot;;-inkscape-font-specification:&quot;Ioskeley Mono Ultra-Light&quot;;letter-spacing:1.05833px;word-spacing:2.11667px;fill:#100f0f;fill-opacity:1;stroke-width:.2;stroke-linecap:round"/><path d="M26.371 5.977q-.16 0-.33-.016-.16-.008-.322-.043-.16-.025-.32-.076-.154-.06-.298-.135-.144-.085-.262-.195-.119-.119-.203-.254-.085-.144-.119-.305-.034-.17-.034-.33V1.355q0-.161.034-.322.034-.17.12-.305.083-.144.202-.254.118-.118.262-.195.144-.084.297-.135.16-.06.321-.085.161-.034.322-.042.17-.017.33-.017.161 0 .322.017.17.008.33.042.161.026.313.085.161.05.305.135.144.077.263.195.118.11.203.254.085.136.118.305.034.16.034.322v3.268q0 .16-.034.33-.033.16-.118.305-.085.135-.203.254-.119.11-.263.195-.144.076-.305.135-.152.05-.313.076-.16.034-.33.043-.16.016-.322.016m0-.321q.17 0 .34-.017.177-.017.346-.06.17-.05.322-.126.16-.077.28-.204.118-.127.177-.288.068-.169.068-.338V1.355q0-.17-.068-.33-.06-.17-.178-.297t-.28-.203q-.152-.076-.32-.119-.17-.05-.348-.067-.17-.017-.339-.017-.17 0-.347.017-.17.017-.339.067-.169.043-.33.119-.152.076-.27.203-.12.127-.187.296-.06.161-.06.33v3.269q0 .17.06.338.068.161.186.288.12.127.271.203.161.077.33.127.17.043.34.06.177.017.346.017m-8.136.253L20.03.068h.406l1.795 5.842h-.39l-.567-1.88h-2.083l-.567 1.88zm1.058-2.2h1.88l-.508-1.694q-.11-.364-.22-.72-.11-.364-.212-.728-.102.364-.212.728-.11.356-.22.72zm-6.9 2.2v-.321h1.524V.389h-1.524V.068h3.403v.321h-1.524v5.199h1.524v.322Zm-4.445.068q-.22 0-.449-.025-.22-.025-.432-.093-.21-.076-.406-.195-.186-.127-.33-.305-.136-.177-.212-.39-.068-.22-.068-.44V4.47h.356v.043q0 .177.06.355.067.17.177.314.118.135.27.228t.323.153q.177.05.355.076.178.017.356.017t.355-.017q.187-.026.356-.085.17-.06.322-.152.152-.102.262-.237.12-.144.178-.314.068-.17.068-.355 0-.237-.127-.458-.119-.22-.314-.372-.186-.152-.406-.246-.22-.101-.449-.177-.228-.085-.465-.161-.229-.085-.45-.187-.22-.101-.43-.228-.204-.136-.365-.313-.16-.178-.254-.407-.093-.228-.093-.474 0-.22.068-.432.067-.211.194-.39.127-.177.305-.304.186-.135.39-.212.211-.076.431-.101.22-.034.44-.034t.432.025q.22.026.424.102.211.076.39.203.186.127.313.305.135.17.203.38.067.213.067.433v.059h-.355v-.042q0-.178-.06-.347-.05-.17-.16-.305-.11-.136-.254-.229Q8.82.483 8.65.424q-.16-.06-.338-.077-.17-.025-.347-.025-.178 0-.356.025-.17.025-.339.085-.16.05-.313.152-.144.102-.245.246-.102.135-.16.304-.06.17-.06.34 0 .245.118.465.127.22.313.372.186.144.407.246.228.101.457.186.228.076.457.161.23.076.45.178.227.101.431.228t.364.314q.17.177.262.406.093.229.093.466 0 .228-.076.448-.068.212-.203.398-.136.178-.33.305-.187.127-.398.203-.21.076-.44.102-.22.025-.45.025m-7.949-.068V.068h.355v2.641h2.93V.068h.355V5.91h-.355V3.031H.353V5.91Z" style="font-weight:200;font-size:8.46667px;line-height:0;font-family:&quot;Ioskeley Mono&quot;;-inkscape-font-specification:&quot;Ioskeley Mono Ultra-Light&quot;;letter-spacing:1.05833px;word-spacing:2.11667px;fill:#205ea6;fill-opacity:1;stroke-width:.2;stroke-linecap:round"/></svg>