<svg xmlns="http://www.w3.org/2000/svg" width="198.72" height="73.344" viewBox="0 0 52.578 19.406"><path d="M53.838 102.796h2.878v-4.538h4.42v4.538h2.879V91.484h-2.879v4.234h-4.42v-4.234h-2.878zm16.408.203c2.523 0 4.81-1.355 4.81-3.81 0-1.981-1.423-2.777-3.93-3.285l-1.506-.305c-.83-.152-1.22-.525-1.22-1.016 0-.626.644-.999 1.71-.999 1.067 0 1.796.424 2.083 1.169l2.591-.949c-.711-1.795-2.54-2.523-4.402-2.523-2.27 0-4.86 1.067-4.86 3.573 0 1.812 1.388 2.828 3.454 3.218l1.338.254c1.253.237 1.862.524 1.862 1.236 0 .88-.914 1.134-1.862 1.134-1.287 0-2.202-.61-2.439-1.54l-2.624.947c.71 1.812 2.404 2.896 4.995 2.896m5.825-.203h5.995v-2.1h-1.558v-7.112h1.558v-2.1H76.07v2.1h1.558v7.112H76.07zm6.74 0h3.15l.626-1.93h4.182l.644 1.93h3.15L90.26 91.484h-3.166zm4.538-4.25 1.32-3.997 1.338 3.997zm13.14 4.453c3.488 0 5.927-2.32 5.927-5.859s-2.439-5.859-5.927-5.859-5.927 2.32-5.927 5.86c0 3.538 2.439 5.858 5.927 5.858m0-2.37c-1.558 0-2.845-1.186-2.845-3.489s1.287-3.488 2.845-3.488 2.845 1.185 2.845 3.488-1.287 3.488-2.845 3.488" aria-label="HSIAO" style="font-weight:800;font-size:16.9333px;font-family:&quot;Atkinson Hyperlegible Next&quot;;-inkscape-font-specification:&quot;Atkinson Hyperlegible Next Ultra-Bold&quot;;fill:#100f0f;fill-opacity:1;stroke-width:.264583" transform="translate(-53.838 -91.281)"/><g style="fill:#100f0f;fill-opacity:1"><path d="M62.774 110.687h.432l.491-1.524h2.455l.483 1.524h.432l-1.804-5.758h-.685zm1.033-1.914 1.084-3.446h.06l1.083 3.446zm5.97 1.914h.43v-5.351h1.652v-.407h-3.725v.407h1.642zm3.936 0h3.217v-.407h-2.785v-2.387h2.294v-.415h-2.294v-2.134h2.616v-.415h-3.048zm4.979 0h3.395v-.407h-2.964v-5.35h-.431zm5.164 0h2.76v-.39h-1.168v-4.97h1.118v-.398h-2.65v.398h1.126v4.97h-1.186zm5.097 0h3.217v-.407h-2.785v-2.387h2.294v-.415h-2.294v-2.134h2.616v-.415h-3.048zm4.784 0h.415v-2.591h1.083c.957 0 1.194.17 1.372.948l.364 1.643h.491l-.406-1.592c-.22-.864-.356-1.067-.762-1.143v-.025c.745-.085.914-.356.914-1.499 0-1.245-.372-1.524-2.091-1.524-.567 0-.813.008-1.38.025zm.415-3.006v-2.337c.465-.017.652-.025 1.05-.025 1.312 0 1.6.195 1.6 1.11 0 1.032-.187 1.252-1.05 1.252z" aria-label="ATELIER" style="font-weight:200;font-size:8.46667px;font-family:&quot;Berkeley Mono Variable&quot;;-inkscape-font-specification:&quot;Berkeley Mono Variable Ultra-Light&quot;;fill:#100f0f;fill-opacity:1;stroke-width:.264583" transform="translate(-53.838 -91.281)"/><path d="M54.704 107.795h6.303m38.239 0h6.303" style="fill:#100f0f;fill-opacity:1;stroke:#100f0f;stroke-width:.4;stroke-linecap:round;stroke-dasharray:none;stroke-opacity:1" transform="translate(-53.838 -91.281)"/></g></svg>