<svg xmlns="http://www.w3.org/2000/svg" width="380.373" height="209.127" viewBox="0 0 285.28 156.845"><defs><clipPath id="a"><path d="M84.855 107.227h205.5V205h-205.5zm0 0"/></clipPath><clipPath id="b"><path d="M0 0h293v50H0Z"/></clipPath><clipPath id="c"><path d="M0 0h210v18H0Z"/></clipPath></defs><g clip-path="url(#a)" transform="translate(-44.854 -107.242)"><path fill="#21d7e8" fill-rule="evenodd" d="m224.566 153.164-3.656-6.516c8.188.793 9.406.735 14.703 9.149-4.39-1.36-5.183-2.746-11.047-2.633m-82.8 32.633c4.672 2.832 31.754-10.254 35.437-11.871l-6.656 11.586c-.059.058-.172.226-.258.312.145.172.313.313.371.594.227 1.332 7.703-5.55 10.594-7.676 15.184-11.219 4.105-5.664 42.008 1.274l-30.453-15.864c-5.211-2.66-5.266-3.851-10.536-.761zm-56.91 15.89c4.363-.593 20.62-5.664 25.07-7.394 8.781-3.426 71.07-39.344 75.379-40.902 2.86-1.02 30.054 12.945 33.707 14.672 7.535 3.542 14.816 6.914 22.605 10.652 6.516 3.086 15.863 7.988 22.664 10.566-1.39 1.473-7.222 4.39-9.66 5.324-4.078 1.56-35.691-.394-45.184.368l-4.39.312c4.078 1.473 39.52 7.508 46.969 8.922 6.656 1.277 5.097.965 10.453-1.7 3.172-1.585 6.09-3.226 9.402-4.956 3.258-1.7 16.402-7.363 18.274-10.68-4.844-2.465-34.332-23.566-41.727-28.695-4.223-2.946-2.012-4.02-5.723-11.274-1.273-2.52-.652-1.132-6.004-4.476L215.84 130.02c-4.278-2.665-16.004-18.61-20.762-22.778-2.61 1.418-13.117 10.88-17.055 14.082L98.621 189.45c-2.21 1.813-5.21 4.137-7.168 5.922-1.101.992-2.18 2.352-3.226 3.258-1.418 1.273-2.239 1.672-3.372 3.059m0 0"/></g><g fill="#f2f3f7" clip-path="url(#b)" transform="translate(-3.854 94.758)"><path d="M16.603 7.983h4.313c.437 0 .656.227.656.672V40.53q0 .673-.656.672h-4.11q-.579.002-.75-.547l-6.36-17.719h-.202V40.53q0 .673-.657.672H4.51q-.656 0-.656-.672V8.655c0-.445.219-.672.656-.672h4.11q.591.001.75.547l6.312 17.64h.25V8.656c0-.445.223-.672.672-.672M43.743 26.17h1.703q.826.001.828.829v3.578c0 .555-.277.828-.828.828h-1.703v8.969q-.002.83-.828.828h-3.61q-.83.001-.828-.828v-9.047H26.555q-.83 0-.828-.844v-3.687q0-.545.281-1L36.68 8.53q.296-.546 1-.547h4.36q.498 0 .656.281.17.268-.11.72l-10.42 17.264h6.312V21.28q-.002-.827.828-.828h3.61q.826 0 .828.828zm6.681 9.048v-21.25c0-1.97.508-3.457 1.531-4.47 1.02-1.007 2.5-1.515 4.438-1.515h4.656Q64 7.985 65.518 9.5c1.007 1.012 1.515 2.5 1.515 4.469v21.25c0 1.937-.508 3.421-1.515 4.453-1.012 1.023-2.5 1.53-4.47 1.53h-4.655c-1.938 0-3.418-.507-4.438-1.53q-1.533-1.548-1.531-4.453m7.187.625h2.407c1.101 0 1.656-.551 1.656-1.657V15c0-1.102-.555-1.656-1.656-1.656H57.61q-1.674.002-1.672 1.656v19.187q-.002 1.658 1.672 1.657M98.116 8.655v4.156q-.002.703-.671.703H87.07v8.297h7.937q.657 0 .656.703v4.11q0 .72-.656.719H87.07v8.375h10.375q.67.002.671.671v4.141q-.002.673-.671.672H82.179q-.626 0-.625-.672V8.655c0-.445.207-.672.625-.672h15.266c.445 0 .671.227.671.672m16.9-.672h4.312c.438 0 .657.227.657.672V40.53q0 .673-.657.672h-4.11q-.579.002-.75-.547l-6.358-17.719h-.204V40.53q0 .673-.656.672h-4.328q-.656 0-.656-.672V8.655c0-.445.219-.672.656-.672h4.11q.591.001.75.547l6.312 17.64h.25V8.656c0-.445.223-.672.672-.672m9.124 27.234v-21.25c0-1.97.508-3.457 1.531-4.47 1.02-1.007 2.5-1.515 4.438-1.515h5.484q2.904.002 4.437 1.516 1.548 1.517 1.547 4.469v4.312q-.001.673-.672.672h-4.14q-.673 0-.672-.672v-3.156c0-1.102-.555-1.656-1.656-1.656h-3q-1.658.002-1.657 1.656V34.06q-.001 1.658 1.657 1.657h3c1.101 0 1.656-.551 1.656-1.657V28.5h-2.156q-.673 0-.672-.672v-4.14q0-.671.672-.673h6.968c.446 0 .672.227.672.672v11.532q0 2.905-1.547 4.453c-1.023 1.023-2.5 1.53-4.437 1.53h-5.484c-1.938 0-3.418-.507-4.438-1.53q-1.533-1.548-1.531-4.453m22.24-27.236h4.328c.437 0 .656.227.656.672V40.53q0 .673-.656.672h-4.328q-.657 0-.657-.672V8.655c0-.445.22-.672.657-.672m21.889 0h4.313c.437 0 .656.227.656.672V40.53q0 .673-.656.672h-4.11q-.58.002-.75-.547l-6.36-17.719h-.202V40.53q0 .673-.657.672h-4.328q-.656 0-.656-.672V8.655c0-.445.219-.672.656-.672h4.11q.591.001.75.547l6.312 17.64h.25V8.656c0-.445.223-.672.672-.672m25.687.671v4.156c0 .469-.227.703-.672.703h-10.375v8.297h7.937q.656 0 .656.703v4.11q0 .72-.656.719h-7.937v8.375h10.375c.445 0 .672.226.672.671v4.141c0 .45-.227.672-.672.672h-15.266q-.626 0-.625-.672V8.655c0-.445.207-.672.625-.672h15.266c.445 0 .672.227.672.672m20.712 0v4.156c0 .469-.227.703-.672.703H203.62v8.297h7.937q.656 0 .656.703v4.11q0 .72-.656.719h-7.937v8.375h10.375c.445 0 .672.226.672.671v4.141c0 .45-.227.672-.672.672H198.73q-.626 0-.625-.672V8.655c0-.445.207-.672.625-.672h15.266c.445 0 .672.227.672.672m21.212 5.313v10.125q-.001 4.16-3.032 5.484l2.86 10.875q.218.75-.579.75h-4.312q-.58.001-.703-.578l-2.781-10.547h-2.875V40.53q0 .673-.657.672h-4.328q-.656 0-.656-.672V8.655c0-.445.219-.672.656-.672h10.422q2.952.002 4.469 1.516 1.513 1.517 1.515 4.469m-11.422 10.625h4.109q1.67.001 1.672-1.657v-7.812q-.001-1.655-1.672-1.656h-4.11zm16.226-16.61h4.328c.438 0 .657.227.657.672V40.53q0 .673-.657.672h-4.328q-.656 0-.656-.672V8.655c0-.445.219-.672.656-.672m21.89 0h4.312c.438 0 .656.227.656.672V40.53q0 .673-.656.672h-4.11q-.579.002-.75-.547l-6.359-17.719h-.203V40.53q0 .673-.656.672h-4.328q-.656 0-.656-.672V8.655c0-.445.218-.672.656-.672h4.11q.591.001.75.547l6.312 17.64h.25V8.656c0-.445.222-.672.672-.672m9.124 27.234v-21.25c0-1.97.507-3.457 1.53-4.47 1.02-1.007 2.5-1.515 4.438-1.515h5.485q2.904.002 4.437 1.516 1.547 1.517 1.547 4.469v4.312q-.001.673-.672.672h-4.14q-.673 0-.672-.672v-3.156c0-1.102-.555-1.656-1.657-1.656h-3q-1.657.002-1.656 1.656V34.06q0 1.658 1.656 1.657h3q1.655.001 1.657-1.657V28.5h-2.157q-.672 0-.671-.672v-4.14q-.001-.671.671-.673h6.97c.445 0 .671.227.671.672v11.532q0 2.905-1.547 4.453c-1.023 1.023-2.5 1.53-4.437 1.53h-5.485c-1.937 0-3.418-.507-4.437-1.53-1.024-1.032-1.531-2.516-1.531-4.453m0 0"/></g><g fill="#f2f3f7" clip-path="url(#c)" transform="translate(37.146 143.758)"><path d="M10.01 12.134v.875H3.246V3.431h6.563v.875H4.26v3.406h4.953v.86H4.26v3.562zm10.387-8.703v9.578h-.828l-6.156-7.781v7.781h-1.016V3.431h.829l6.171 7.766V3.43Zm9.873 4.781h.969v3.656q-.674.598-1.594.907a5.8 5.8 0 0 1-1.922.312q-1.44.001-2.594-.625a4.6 4.6 0 0 1-1.797-1.734c-.437-.75-.656-1.586-.656-2.516q0-1.371.656-2.484a4.6 4.6 0 0 1 1.797-1.75q1.155-.623 2.61-.625 1.09.002 2 .344.92.345 1.546 1.03l-.625.641q-1.143-1.125-2.89-1.125c-.774 0-1.469.172-2.094.516a3.74 3.74 0 0 0-1.469 1.438 3.9 3.9 0 0 0-.53 2.015c0 .75.175 1.43.53 2.031a3.77 3.77 0 0 0 1.453 1.422c.625.344 1.32.516 2.094.516q1.483.002 2.516-.734zm3.825-4.781h1.016v9.578h-1.016zm12.132 0v9.578h-.829l-6.156-7.781v7.781h-1.015V3.431h.828l6.172 7.766V3.43Zm9.888 8.703v.875h-6.766V3.431h6.562v.875h-5.546v3.406h4.953v.86h-4.953v3.562zm9.152 0v.875h-6.766V3.431h6.563v.875h-5.547v3.406h4.953v.86h-4.953v3.562zm8.933.876-2.202-3.08a6 6 0 0 1-.765.047H68.67v3.031h-1.015V3.431h3.578q1.841.001 2.875.875c.695.586 1.047 1.387 1.047 2.406 0 .75-.196 1.387-.578 1.906q-.564.769-1.61 1.11l2.344 3.281zm-2.984-3.907q1.42.001 2.172-.625.75-.622.75-1.766 0-1.154-.75-1.781c-.5-.414-1.226-.625-2.172-.625H68.67v4.797zm13.094 3.031v.875h-6.765V3.431h6.562v.875H78.56v3.406h4.954v.86H78.56v3.562zm2.387-8.703h3.906q1.512 0 2.672.61a4.44 4.44 0 0 1 1.813 1.702q.64 1.08.64 2.47 0 1.407-.64 2.5a4.45 4.45 0 0 1-1.813 1.687q-1.16.61-2.672.61h-3.906zm3.844 8.703c.844 0 1.578-.164 2.203-.5a3.6 3.6 0 0 0 1.469-1.375c.344-.594.515-1.273.515-2.047q0-1.137-.515-2.015a3.6 3.6 0 0 0-1.469-1.391q-.938-.499-2.203-.5h-2.828v7.828zm12.056-7.828v3.766h4.954v.875h-4.954v4.062h-1.015V3.431h6.562v.875zm11.833 8.781q-1.425.001-2.579-.625a4.7 4.7 0 0 1-1.812-1.75q-.643-1.106-.641-2.5c0-.914.21-1.742.64-2.484a4.6 4.6 0 0 1 1.813-1.735q1.155-.639 2.578-.64 1.42.001 2.563.625c.758.418 1.36 1 1.797 1.75q.656 1.113.656 2.484 0 1.393-.656 2.516a4.6 4.6 0 0 1-1.797 1.734q-1.143.626-2.563.625m0-.906c.757 0 1.44-.164 2.046-.5a3.7 3.7 0 0 0 1.438-1.422 4.05 4.05 0 0 0 .53-2.047q-.002-1.107-.53-2.015a3.7 3.7 0 0 0-1.438-1.438q-.909-.516-2.047-.516-1.143 0-2.062.516a3.75 3.75 0 0 0-1.453 1.438 4 4 0 0 0-.516 2.015q0 1.126.516 2.047a3.77 3.77 0 0 0 1.453 1.422c.613.336 1.3.5 2.062.5m13.839.829-2.203-3.079a6 6 0 0 1-.766.047h-2.563v3.031h-1.015V3.431h3.578q1.841.001 2.875.875c.695.586 1.047 1.387 1.047 2.406 0 .75-.196 1.387-.578 1.906q-.564.769-1.61 1.11l2.344 3.281zm-2.985-3.907q1.42.001 2.172-.625.75-.622.75-1.766 0-1.154-.75-1.781c-.5-.414-1.226-.625-2.172-.625h-2.547v4.797zm16.678 3.031v.875h-6.765V3.431h6.563v.875h-5.547v3.406h4.953v.86h-4.953v3.562zm8.388.876-3.094-4.22-3.078 4.22h-1.156l3.64-4.923-3.406-4.656h1.156l2.89 3.906 2.876-3.906h1.094l-3.391 4.625 3.656 4.953zm4.834-8.704h-3.36v-.875h7.735v.875h-3.36v8.703h-1.015zm12.54 8.704-2.203-3.079a6 6 0 0 1-.766.047h-2.562v3.031h-1.016V3.431h3.578q1.843.001 2.875.875c.695.586 1.047 1.387 1.047 2.406q-.002 1.126-.578 1.906-.564.769-1.61 1.11l2.344 3.281zm-2.985-3.907q1.42.001 2.172-.625.75-.622.75-1.766 0-1.154-.75-1.781c-.5-.414-1.226-.625-2.172-.625h-2.546v4.797zm13.095 3.031v.875h-6.766V3.431h6.563v.875h-5.547v3.406h4.953v.86h-4.953v3.562zm12.34-8.703v9.578h-.97V5.337l-3.765 6.453h-.484l-3.766-6.406v7.625h-.969V3.431h.829l4.171 7.094 4.11-7.094zm9.878 8.703v.875h-6.767V3.431h6.563v.875h-5.547v3.406h4.953v.86H194.3v3.562zm5.026.953a6.1 6.1 0 0 1-2.046-.344q-.987-.34-1.516-.89l.406-.781q.515.515 1.375.843a5.1 5.1 0 0 0 1.781.313q1.278 0 1.922-.469.657-.468.657-1.234 0-.562-.36-.907a2.4 2.4 0 0 0-.86-.53 14 14 0 0 0-1.405-.407q-1.08-.264-1.72-.516a3 3 0 0 1-1.109-.78q-.454-.517-.453-1.407 0-.732.375-1.328c.258-.395.657-.707 1.188-.938q.796-.359 1.969-.36.825.001 1.609.22.78.221 1.36.625l-.344.812a4.3 4.3 0 0 0-1.282-.594 4.8 4.8 0 0 0-1.343-.203q-1.266.002-1.907.485-.626.487-.625 1.25 0 .58.344.921.358.346.875.532.53.188 1.422.406 1.06.27 1.703.516a2.8 2.8 0 0 1 1.11.765q.451.517.453 1.39c0 .481-.133.923-.391 1.329q-.394.597-1.203.937-.813.345-1.985.344m0 0"/></g></svg>