<svg xmlns="http://www.w3.org/2000/svg" width="369" height="37" fill="none" viewBox="0 0 369 37"><path fill="#2f80ed" d="M0 0h54v37H0z"/><path fill="#fff" d="M34.702 24V13h5.421q1.839 0 3.238.676 1.398.66 2.184 1.885.785 1.227.785 2.923 0 1.713-.785 2.955-.786 1.225-2.184 1.901-1.4.66-3.238.66zm3.709-2.891h1.555q.786 0 1.367-.299.597-.298.928-.88.33-.597.33-1.446 0-.832-.33-1.414a2.15 2.15 0 0 0-.928-.88q-.58-.299-1.367-.299H38.41zM19.709 24V13h3.048l4.4 7.181h-1.602L29.829 13h3.048l.032 11H29.53l-.031-5.909h.534L27.11 23.01h-1.634l-3.049-4.919h.66V24zM8 24V13h5.296q1.54 0 2.655.503 1.132.502 1.745 1.446.612.927.613 2.2 0 1.272-.613 2.2-.613.91-1.745 1.398-1.115.487-2.655.487h-3.237l1.65-1.524V24zm6.584 0-2.703-4.007h3.929L18.544 24zm-2.875-3.881-1.65-1.682h3.001q.77 0 1.131-.346.378-.345.378-.942 0-.598-.378-.943-.36-.346-1.131-.346h-3.001l1.65-1.681z"/><path fill="#000" d="M351 28V9.448h4.32l10.23 12.35h-2.041V9.448h5.142V28h-4.32l-10.23-12.35h2.04V28zm-9.77.371q-2.2 0-4.081-.689-1.882-.715-3.26-2.014a9.5 9.5 0 0 1-2.12-3.048q-.77-1.776-.769-3.896 0-2.12.769-3.87a9.2 9.2 0 0 1 2.146-3.073q1.379-1.3 3.26-1.988 1.908-.716 4.161-.716 2.624 0 4.691.875 2.067.874 3.419 2.518l-3.34 3.02q-.954-1.032-2.067-1.536-1.086-.53-2.438-.53-1.193 0-2.173.37a4.5 4.5 0 0 0-1.67 1.087 5 5 0 0 0-1.086 1.67q-.372.954-.372 2.173 0 1.166.372 2.147.398.98 1.086 1.696.689.69 1.643 1.087.981.37 2.147.37a7.2 7.2 0 0 0 2.279-.37q1.113-.398 2.253-1.326l2.942 3.684q-1.59 1.14-3.684 1.75-2.094.609-4.108.609m3.154-3.048v-6.996h4.638v7.685zM324 28V9.448h5.247V28zm-10.182.294a17.3 17.3 0 0 1-4.399-.557q-2.094-.582-3.419-1.484l1.723-3.87q1.245.796 2.862 1.326 1.643.503 3.26.503 1.086 0 1.749-.185.663-.212.954-.53.318-.345.318-.795 0-.636-.583-1.007t-1.511-.61a47 47 0 0 0-2.067-.477 23 23 0 0 1-2.253-.61 9.4 9.4 0 0 1-2.04-.954 4.9 4.9 0 0 1-1.511-1.563q-.583-.981-.583-2.465 0-1.67.901-3.021.928-1.352 2.756-2.173Q311.804 9 314.534 9q1.829 0 3.578.424 1.775.398 3.153 1.193l-1.616 3.895a12 12 0 0 0-2.624-1.06 9.2 9.2 0 0 0-2.518-.37q-1.086 0-1.749.238-.663.212-.954.583-.291.37-.292.848 0 .61.557.98.583.345 1.511.584.954.211 2.067.45 1.14.239 2.253.61 1.139.344 2.067.954.927.583 1.484 1.563.583.955.583 2.412a5.25 5.25 0 0 1-.928 2.995q-.9 1.351-2.729 2.173-1.802.822-4.559.822M294.326 16.63h8.613v3.923h-8.613zm.371 7.315h9.699V28h-14.894V9.448h14.55v4.055h-9.355zM269 28.552V10h8.772q3.075 0 5.407 1.14t3.631 3.206q1.325 2.068 1.325 4.93 0 2.835-1.325 4.93-1.299 2.066-3.631 3.206t-5.407 1.14zm5.247-4.188h3.313q1.59 0 2.757-.583a4.43 4.43 0 0 0 1.855-1.749q.662-1.166.662-2.756 0-1.617-.662-2.756a4.27 4.27 0 0 0-1.855-1.723q-1.167-.61-2.757-.61h-3.313zm-23.481-6.779h8.561v4.054h-8.561zM251.137 28h-5.247V9.448h14.55v4.055h-9.303zm-21.423 0V9.448h5.248V23.84h8.851V28zm-23.061 0 8.19-18.552h5.168L228.226 28h-5.459l-6.414-15.981h2.068L212.007 28zm4.479-3.604 1.352-3.87h9.064l1.351 3.87zm-12.259 3.898q-2.2 0-4.081-.69a9.8 9.8 0 0 1-3.233-2.014 9.5 9.5 0 0 1-2.121-3.047q-.768-1.776-.768-3.896t.768-3.87a9.4 9.4 0 0 1 2.121-3.074 9.45 9.45 0 0 1 3.233-1.987Q196.673 9 198.873 9q2.57 0 4.585.901a8.8 8.8 0 0 1 3.393 2.597l-3.34 3.022q-.9-1.06-1.987-1.617-1.06-.557-2.386-.557a5.7 5.7 0 0 0-2.093.371 4.5 4.5 0 0 0-1.643 1.087 5.2 5.2 0 0 0-1.061 1.67q-.37.98-.371 2.173 0 1.193.371 2.173.398.982 1.061 1.696.689.69 1.643 1.06a5.7 5.7 0 0 0 2.093.371q1.326 0 2.386-.556 1.086-.556 1.987-1.617l3.34 3.021q-1.352 1.671-3.393 2.598-2.014.9-4.585.9m-20.864-.37V13.532h-5.698V9.37h16.617v4.16h-5.672v14.392zm-16.932-11.37h8.613v3.923h-8.613zm.371 7.315h9.7v4.055h-14.894V9.37h14.55v4.055h-9.356zM133 27.923V9.37h4.32l7.686 12.615h-2.28L150.2 9.371h4.32l.053 18.552h-4.823l-.053-11.21h.821l-5.592 9.381h-2.332l-5.751-9.382h1.007v11.21zM107 28V9.448h9.488q3.657 0 5.459 1.352 1.803 1.325 1.803 3.498 0 1.431-.769 2.518-.742 1.06-2.12 1.696-1.352.61-3.234.61l.531-1.272q1.961 0 3.418.61 1.458.582 2.253 1.722.822 1.113.822 2.73 0 2.411-1.962 3.763Q120.755 28 117.018 28zm5.194-3.79h4.4q1.351 0 2.041-.45.715-.477.715-1.432 0-.954-.715-1.404-.69-.477-2.041-.477h-4.771v-3.631h3.976q1.325 0 1.987-.45t.663-1.352q0-.901-.663-1.325-.662-.45-1.987-.45h-3.605zM95.31 28.371q-2.227 0-4.108-.715a10 10 0 0 1-3.287-2.015 9.6 9.6 0 0 1-2.146-3.074q-.77-1.749-.769-3.843 0-2.094.769-3.843a9.3 9.3 0 0 1 2.146-3.047 9.8 9.8 0 0 1 3.287-2.041q1.881-.716 4.107-.716 2.253 0 4.108.716a9.5 9.5 0 0 1 3.26 2.04 9.3 9.3 0 0 1 2.147 3.048q.795 1.749.795 3.843t-.795 3.87a9.3 9.3 0 0 1-2.147 3.047q-1.378 1.298-3.26 2.015-1.855.715-4.108.715m0-4.346a5.1 5.1 0 0 0 1.96-.371 4.5 4.5 0 0 0 1.59-1.06 4.9 4.9 0 0 0 1.06-1.697q.398-.98.398-2.173 0-1.22-.397-2.173a4.7 4.7 0 0 0-1.06-1.67 4.3 4.3 0 0 0-1.59-1.086 5.1 5.1 0 0 0-1.962-.371 5.3 5.3 0 0 0-1.987.37q-.901.372-1.59 1.087a5.2 5.2 0 0 0-1.06 1.67q-.371.954-.371 2.173 0 1.193.37 2.173a5.5 5.5 0 0 0 1.06 1.697q.69.688 1.59 1.06a5.3 5.3 0 0 0 1.988.37M67.855 28V9.448h8.481q2.544 0 4.373.822 1.855.822 2.862 2.385 1.007 1.538 1.007 3.657 0 2.095-1.007 3.631-1.007 1.511-2.862 2.332-1.83.796-4.373.796h-5.565l2.332-2.2V28zm11.476 0-4.612-6.758h5.592L84.95 28zm-6.228-6.573-2.332-2.411h5.247q1.643 0 2.438-.716.822-.716.822-1.988 0-1.298-.822-2.014-.795-.715-2.438-.715H70.77l2.333-2.412z"/></svg>