<svg xmlns="http://www.w3.org/2000/svg" width="2927.251" height="1142.081" viewBox="0 0 2927.251 1142.081"><g aria-label="COTTONWOOD ALUMNI" style="font-stretch:semi-condensed;font-size:533.333px;line-height:0;font-family:&quot;Berkeley Mono&quot;;-inkscape-font-specification:&quot;Berkeley Mono Semi-Condensed&quot;;text-align:center;text-anchor:middle;fill:#cecdc3"><path d="M190.56 295.467c-7.467 43.733-20.267 52.8-73.6 52.8-68.266 0-82.666-27.733-82.666-162.133 0-133.867 14.4-161.067 82.667-161.067 49.6 0 61.866 9.6 70.4 56h27.2C207.626 13.867 190.56 0 116.96 0 29.493 0 8.16 36.8 8.16 187.2c0 154.134 18.666 186.134 108.8 186.134 76.266 0 93.333-13.334 100.8-77.867zm214.4 77.867c94.934 0 114.667-32 114.667-186.667C519.627 31.467 499.894 0 404.96 0S290.294 31.467 290.294 186.667c0 154.667 19.733 186.667 114.666 186.667m0-25.6c-73.067 0-88-27.2-88-161.067S331.893 25.6 404.96 25.6c73.066 0 88 27.2 88 161.067s-14.934 161.067-88 161.067M691.359 368h26.666V30.4h97.067V5.334H594.826V30.4h96.533zm300.266 0h26.667V30.4h97.066V5.334H895.093V30.4h96.533zm314.133 5.334c94.933 0 114.667-32 114.667-186.667C1420.425 31.467 1400.69 0 1305.758 0s-114.666 31.467-114.666 186.667c0 154.667 19.733 186.667 114.666 186.667m0-25.6c-73.066 0-88-27.2-88-161.067s14.934-161.067 88-161.067 88 27.2 88 161.067-14.933 161.067-88 161.067M1495.624 368h26.133V138.667l-1.6-97.6h3.2L1678.558 368h37.334V5.335h-25.6v229.333l1.067 97.6h-2.667L1532.957 5.335h-37.333zm318.932 0h34.134l56.533-336h2.667l56.533 336h34.133l44.267-362.666h-25.067L1982.023 332.8h-2.667l-9.066-65.066-46.4-262.4h-35.2l-45.867 262.4-8.533 65.066h-3.2L1794.824 5.334h-25.068zm392 5.334c94.933 0 114.667-32 114.667-186.667C2321.223 31.467 2301.49 0 2206.556 0S2091.89 31.467 2091.89 186.667c0 154.667 19.734 186.667 114.667 186.667m0-25.6c-73.067 0-88-27.2-88-161.067s14.933-161.067 88-161.067 88 27.2 88 161.067-14.933 161.067-88 161.067m300.266 25.6c94.934 0 114.667-32 114.667-186.667C2621.49 31.467 2601.756 0 2506.822 0s-114.666 31.467-114.666 186.667c0 154.667 19.733 186.667 114.666 186.667m0-25.6c-73.066 0-88-27.2-88-161.067s14.934-161.067 88-161.067 88 27.2 88 161.067-14.933 161.067-88 161.067m195.2 21.333c37.334 3.2 49.067 4.267 68.267 4.267 121.6 0 148.8-32 148.8-186.134 0-143.466-29.867-174.4-135.467-182.4-24-1.6-44.8-1.6-81.6.534zm26.667-339.2c29.867-1.067 42.666-1.067 61.333 1.067C2872.155 40 2892.955 67.2 2892.955 188.8c0 128-18.666 154.667-105.6 158.934-27.2 1.066-37.866.533-58.666-2.134z" style="font-weight:200;font-stretch:normal;line-height:1;-inkscape-font-specification:&quot;Berkeley Mono Ultra-Light&quot;"/><path d="M37.586 1133.281h98.56l30.8-134.64h190.96l32.56 134.64h98.56l-145.2-598.4h-161.92zm151.36-223.52 65.12-286h18.48l65.12 286zm404.8 223.52h364.32v-94.16h-259.6v-504.24h-104.72zm469.92-598.4v400.4c0 171.6 32.56 206.8 190.96 206.8 156.64 0 188.32-35.2 188.32-206.8v-400.4h-102.96v400.4c0 94.16-14.96 113.52-85.36 113.52-72.16 0-88-19.36-88-113.52v-400.4zm476.96 598.4h95.92v-321.2l-11.44-161.92h2.64l79.2 271.04h84.48l79.2-271.04h2.64l-11.44 161.92v321.2h95.92v-598.4h-124.96l-81.84 285.12h-3.52l-81.84-285.12h-124.96zm506.879 0h97.68v-321.2l-8.8-160.16h1.76l169.84 481.36h133.76v-598.4h-97.68v320.32l8.8 160.16h-2.64l-169.84-480.48h-132.88zm542.96 0h299.2v-88.88h-100.32v-420.64h95.04v-88.88h-287.76v88.88h94.16v420.64h-100.32z" style="font-weight:700;font-stretch:normal;font-size:880px;line-height:.9;-inkscape-font-specification:&quot;Berkeley Mono Bold&quot;"/></g></svg>