<svg xmlns="http://www.w3.org/2000/svg" width="2927.251" height="1142.081" viewBox="0 0 2927.251 1142.081"><g aria-label="COTTONWOOD ALUMNI" style="font-stretch:semi-condensed;font-size:533.333px;line-height:0;font-family:&quot;Berkeley Mono&quot;;-inkscape-font-specification:&quot;Berkeley Mono Semi-Condensed&quot;;text-align:center;text-anchor:middle;fill:#cecdc3"><path d="M3236.298 1982.772c-7.467 43.733-20.267 52.8-73.6 52.8-68.267 0-82.667-27.733-82.667-162.133 0-133.867 14.4-161.067 82.667-161.067 49.6 0 61.866 9.6 70.4 56h27.2c-6.934-67.2-24-81.067-97.6-81.067-87.467 0-108.8 36.8-108.8 187.2 0 154.134 18.666 186.134 108.8 186.134 76.266 0 93.333-13.334 100.8-77.867zm214.4 77.867c94.933 0 114.666-32 114.666-186.667 0-155.2-19.733-186.667-114.667-186.667s-114.666 31.467-114.666 186.667c0 154.667 19.733 186.667 114.666 186.667m0-25.6c-73.067 0-88-27.2-88-161.067s14.933-161.067 88-161.067c73.066 0 88 27.2 88 161.067s-14.934 161.067-88 161.067m286.399 20.266h26.666v-337.6h97.067v-25.066h-220.266v25.066h96.533zm300.266 0h26.667v-337.6h97.066v-25.066H3940.83v25.066h96.533zm314.133 5.334c94.933 0 114.667-32 114.667-186.667 0-155.2-19.734-186.667-114.667-186.667s-114.666 31.467-114.666 186.667c0 154.667 19.733 186.667 114.666 186.667m0-25.6c-73.066 0-88-27.2-88-161.067s14.934-161.067 88-161.067 88 27.2 88 161.067-14.933 161.067-88 161.067m189.867 20.266h26.133v-229.333l-1.6-97.6h3.2l155.2 326.933h37.333V1692.64h-25.6v229.333l1.067 97.6h-2.667l-155.733-326.933h-37.333zm318.932 0h34.134l56.533-336h2.667l56.533 336h34.133l44.267-362.666h-25.067l-35.733 327.466h-2.667l-9.066-65.066-46.4-262.4h-35.2l-45.867 262.4-8.533 65.066h-3.2l-36.267-327.466h-25.067zm392 5.334c94.933 0 114.667-32 114.667-186.667 0-155.2-19.734-186.667-114.667-186.667s-114.667 31.467-114.667 186.667c0 154.667 19.734 186.667 114.667 186.667m0-25.6c-73.067 0-88-27.2-88-161.067s14.933-161.067 88-161.067 88 27.2 88 161.067-14.933 161.067-88 161.067m300.266 25.6c94.934 0 114.667-32 114.667-186.667 0-155.2-19.733-186.667-114.667-186.667s-114.666 31.467-114.666 186.667c0 154.667 19.733 186.667 114.666 186.667m0-25.6c-73.066 0-88-27.2-88-161.067s14.934-161.067 88-161.067 88 27.2 88 161.067-14.933 161.067-88 161.067m195.2 21.333c37.334 3.2 49.067 4.267 68.267 4.267 121.6 0 148.8-32 148.8-186.134 0-143.466-29.867-174.4-135.467-182.4-24-1.6-44.8-1.6-81.6.534zm26.667-339.2c29.867-1.067 42.666-1.067 61.333 1.067 82.133 9.066 102.933 36.266 102.933 157.866 0 128-18.666 154.667-105.6 158.934-27.2 1.066-37.866.533-58.666-2.134z" style="font-weight:200;font-stretch:normal;line-height:1;-inkscape-font-specification:&quot;Berkeley Mono Ultra-Light&quot;" transform="translate(-3037.577 -1687.305)"/><path d="M3037.577 2820.586h98.56l30.8-134.64h190.96l32.56 134.64h98.56l-145.2-598.4h-161.92zm151.36-223.52 65.12-286h18.48l65.12 286zm404.8 223.52h364.32v-94.16h-259.6v-504.24h-104.72zm469.92-598.4v400.4c0 171.6 32.56 206.8 190.96 206.8 156.64 0 188.32-35.2 188.32-206.8v-400.4h-102.96v400.4c0 94.16-14.96 113.52-85.36 113.52-72.16 0-88-19.36-88-113.52v-400.4zm476.96 598.4h95.92v-321.2l-11.44-161.92h2.64l79.2 271.04h84.48l79.2-271.04h2.64l-11.44 161.92v321.2h95.92v-598.4h-124.96l-81.84 285.12h-3.52l-81.84-285.12h-124.96zm506.879 0h97.68v-321.2l-8.8-160.16h1.76l169.84 481.36h133.76v-598.4h-97.68v320.32l8.8 160.16h-2.64l-169.84-480.48h-132.88zm542.96 0h299.2v-88.88h-100.32v-420.64h95.04v-88.88h-287.76v88.88h94.16v420.64h-100.32z" style="font-weight:700;font-stretch:normal;font-size:880px;line-height:.9;-inkscape-font-specification:&quot;Berkeley Mono Bold&quot;" transform="translate(-3037.577 -1687.305)"/></g></svg>