<svg xmlns="http://www.w3.org/2000/svg" width="296.335" height="76.371" viewBox="0 0 78.405 20.206"><path d="M77.76 80.515c.582 0 1.032-.247 1.269-.741l-.321-.119c-.158.306-.44.548-.924.548-.632 0-1.116-.508-1.116-1.407 0-.909.499-1.388 1.111-1.388.474 0 .766.237.914.548l.316-.118c-.217-.484-.677-.741-1.21-.741-.899 0-1.501.696-1.501 1.699 0 .998.558 1.719 1.462 1.719m5.717 0c.929 0 1.502-.721 1.502-1.71 0-.987-.573-1.708-1.502-1.708-.928 0-1.501.721-1.501 1.709s.573 1.709 1.501 1.709m0-.312c-.632 0-1.13-.493-1.13-1.397s.498-1.398 1.13-1.398c.633 0 1.131.494 1.131 1.398s-.498 1.397-1.13 1.397m5.422.252h.36v-2.983h1.107v-.316h-2.573v.316H88.9zm5.416 0h.361v-2.983h1.106v-.316H93.21v.316h1.106zm5.718.06c.929 0 1.502-.721 1.502-1.71 0-.987-.573-1.708-1.502-1.708-.928 0-1.501.721-1.501 1.709s.573 1.709 1.501 1.709m0-.312c-.632 0-1.13-.493-1.13-1.397s.498-1.398 1.13-1.398 1.131.494 1.131 1.398-.499 1.397-1.13 1.397m4.765.252h.365v-2.948l1.63 2.948h.553v-3.299h-.365v2.934l-1.62-2.934h-.563zm6.547 0h.44l.716-2.79.711 2.79h.44l.86-3.299h-.386l-.711 2.865-.706-2.865h-.41l-.712 2.865-.706-2.865h-.39zm7.595.06c.929 0 1.501-.721 1.501-1.71 0-.987-.572-1.708-1.501-1.708s-1.501.721-1.501 1.709.573 1.709 1.501 1.709m0-.312c-.632 0-1.131-.493-1.131-1.397s.499-1.398 1.131-1.398 1.131.494 1.131 1.398-.499 1.397-1.131 1.397m6.093.312c.929 0 1.502-.721 1.502-1.71 0-.987-.573-1.708-1.502-1.708-.928 0-1.501.721-1.501 1.709s.573 1.709 1.501 1.709m0-.312c-.632 0-1.13-.493-1.13-1.397s.498-1.398 1.13-1.398 1.131.494 1.131 1.398-.499 1.397-1.13 1.397m4.765.252h.854c1.028 0 1.763-.424 1.763-1.66 0-1.234-.74-1.639-1.763-1.639h-.854zm.825-.31h-.46v-2.678h.46c.78 0 1.417.223 1.417 1.329 0 1.116-.637 1.348-1.417 1.348" aria-label="COTTONWOOD" style="font-weight:300;font-size:4.9389px;line-height:1;font-family:&quot;Atkinson Hyperlegible Next&quot;;-inkscape-font-specification:&quot;Atkinson Hyperlegible Next Light&quot;;letter-spacing:2.64583px;fill:#ad8301;stroke-width:.265" transform="translate(-65.154 -77.097)"/><path d="M65.154 97.1h2.726l.694-2.083h4.47l.695 2.083h2.726l-4.267-11.31h-2.777Zm4.098-4.132 1.54-4.538 1.558 4.538zm10.96 4.132h8.043v-2.2h-5.537v-9.11h-2.506zm16.463.203c3.471 0 4.826-1.66 4.826-5.113v-6.401h-2.506v6.671c0 1.999-.626 2.777-2.303 2.777-1.676 0-2.337-.778-2.337-2.777v-6.67H91.85v6.4c0 3.455 1.338 5.114 4.826 5.114m9.453-.203h2.439v-9.008l2.777 9.008h2.1l2.776-9.008V97.1h2.456V85.79H114.9l-2.49 8.28-2.455-8.28h-3.827zm17.192 0h2.421v-8.314l4.504 8.314h3.235V85.79h-2.422v8.297l-4.487-8.297h-3.251zm14.584 0h5.655v-1.846h-1.575v-7.62h1.575V85.79h-5.655v1.845h1.574v7.62h-1.574z" aria-label="ALUMNI" style="font-weight:700;font-size:16.9333px;line-height:1;font-family:&quot;Atkinson Hyperlegible Next&quot;;-inkscape-font-specification:&quot;Atkinson Hyperlegible Next Bold&quot;;letter-spacing:2.64583px;fill:#100f0f;stroke-width:.265" transform="translate(-65.154 -77.097)"/><path d="M66.753 83.152h75.207" style="fill:none;fill-opacity:1;stroke:#6f6e69;stroke-width:.25;stroke-linecap:round;stroke-dasharray:none;stroke-opacity:1" transform="translate(-65.154 -77.097)"/></svg>